:FULLY-SPECIFIED
:FORCE-ALL-JOINTS-BE-3DOF
:DEGREES
65
root 8.87051 16.0706 -27.6563 5.59494 -9.65287 -1.64286
lfemur -30.0549 4.84863 -20.7364
ltibia 32.3723 -0 0
lfoot -7.66888 8.9189 -0.125823
ltoes -1.35211 0 0
rfemur -0.58594 3.29573 22.0519
rtibia 36.4853 -0 0
rfoot -10.545 -6.75576 0.386777
rtoes -19.2108 0 0
lowerback -6.60597 -0.00454707 -0.872812
upperback -1.39381 -0.0498336 3.30082
thorax 2.30457 -0.0337505 3.96738
lowerneck -22.19 -4.15631 -11.8666
upperneck 18.1124 -4.89626 13.0459
head 10.073 -1.60957 5.91308
lclavicle -2.00524e-14 3.18055e-15 0
lhumerus -34.6386 -9.98825 89.0114
lradius 24.1175 -0 0
lwrist 0.0165852 0 0
lhand -1.80517 -20.2276 0.190295
lfingers 7.12502 -0 0
lthumb 23.8392 8.08918 0.110273
rclavicle -2.00524e-14 3.18055e-15 0
rhumerus -44.804 16.9529 -91.96
rradius 47.2735 -0 0
rwrist -24.0326 0 0
rhand -30.6966 -28.4813 0.00422174
rfingers 7.12502 -0 0
rthumb -3.99017 -58.4245 0.00415265
66
root 8.89568 16.088 -27.5266 5.48052 -9.59675 -1.36678
lfemur -29.249 4.66451 -21.1902
ltibia 32.2034 -0 0
lfoot -8.2171 9.00895 -0.122563
ltoes -1.28473 0 0
rfemur -2.10731 3.09384 21.8152
rtibia 38.4916 -0 0
rfoot -10.9605 -7.16673 0.378459
rtoes -18.5471 0 0
lowerback -6.47251 -0.0760731 -1.06912
upperback -1.4041 -0.129026 3.25168
thorax 2.22467 -0.0731745 4.01947
lowerneck -22.2212 -4.13408 -11.8423
upperneck 18.2189 -4.86199 12.9729
head 10.1083 -1.59916 5.89094
lclavicle -2.00524e-14 3.18055e-15 0
lhumerus -34.0787 -10.1233 88.8283
lradius 24.2181 -0 0
lwrist 0.0927626 0 0
lhand -2.38332 -20.4141 0.189059
lfingers 7.12502 -0 0
lthumb 23.2851 7.97676 0.109509
rclavicle -2.00524e-14 3.18055e-15 0
rhumerus -44.7134 16.7768 -91.7892
rradius 46.8024 -0 0
rwrist -23.8931 0 0
rhand -30.7026 -28.107 0.00366712
rfingers 7.12502 -0 0
rthumb -3.99593 -58.0501 0.00361278
67
root 8.92085 16.1055 -27.3968 5.36768 -9.53283 -1.09189
lfemur -28.4351 4.48677 -21.6421
ltibia 32.0259 -0 0
lfoot -8.76262 9.09427 -0.118215
ltoes -1.22184 0 0
rfemur -3.62578 2.89367 21.5829
rtibia 40.4668 -0 0
rfoot -11.3744 -7.57391 0.367474
rtoes -17.8896 0 0
lowerback -6.34086 -0.147644 -1.26504
upperback -1.41415 -0.208935 3.20259
thorax 2.14622 -0.112905 4.07119
lowerneck -22.2504 -4.11278 -11.819
upperneck 18.3245 -4.82888 12.9008
head 10.1431 -1.58939 5.86906
lclavicle -2.00524e-14 3.18055e-15 0
lhumerus -33.5229 -10.26 88.6486
lradius 24.3244 -0 0
lwrist 0.173278 0 0
lhand -2.95971 -20.6002 0.186024
lfingers 7.12502 -0 0
lthumb 22.7327 7.86436 0.107718
rclavicle -2.00524e-14 3.18055e-15 0
rhumerus -44.6242 16.5988 -91.6162
rradius 46.3333 -0 0
rwrist -23.7539 0 0
rhand -30.7085 -27.7349 0.00316325
rfingers 7.12502 -0 0
rthumb -4.00164 -57.6779 0.00312167
68
root 8.94602 16.1229 -27.2671 5.25684 -9.46111 -0.818981
lfemur -27.6145 4.31587 -22.0906
ltibia 31.8391 -0 0
lfoot -9.30333 9.17422 -0.112859
ltoes -1.1636 0 0
rfemur -5.13659 2.6966 21.3551
rtibia 42.403 -0 0
rfoot -11.7857 -7.9761 0.353934
rtoes -17.2414 0 0
lowerback -6.21167 -0.21913 -1.46003
upperback -1.4239 -0.289411 3.15372
thorax 2.06964 -0.152877 4.12243
lowerneck -22.2775 -4.0925 -11.7969
upperneck 18.429 -4.79704 12.8297
head 10.1774 -1.58031 5.84745
lclavicle -2.00524e-14 3.18055e-15 0
lhumerus -32.9732 -10.3987 88.4735
lradius 24.4364 -0 0
lwrist 0.257992 0 0
lhand -3.53205 -20.7853 0.181228
lfingers 7.12502 -0 0
lthumb 22.1842 7.75237 0.104919
rclavicle -2.00524e-14 3.18055e-15 0
rhumerus -44.5369 16.4193 -91.4416
rradius 45.8673 -0 0
rwrist -23.6151 0 0
rhand -30.7142 -27.3664 0.00271344
rfingers 7.12502 -0 0
rthumb -4.00719 -57.3092 0.00268257
69
root 8.97119 16.1404 -27.1374 5.1484 -9.38159 -0.548855
lfemur -26.7886 4.15222 -22.5341
ltibia 31.6421 -0 0
lfoot -9.83714 9.24811 -0.106586
ltoes -1.11013 0 0
rfemur -6.63497 2.50408 21.1316
rtibia 44.2923 -0 0
rfoot -12.1936 -8.37208 0.337984
rtoes -16.6059 0 0
lowerback -6.08563 -0.290408 -1.65358
upperback -1.43331 -0.370308 3.10524
thorax 1.99535 -0.193025 4.17307
lowerneck -22.3025 -4.07334 -11.776
upperneck 18.5323 -4.76662 12.7596
head 10.2112 -1.57198 5.82615
lclavicle -2.00524e-14 3.18055e-15 0
lhumerus -32.4315 -10.5397 88.304
lradius 24.5544 -0 0
lwrist 0.346769 0 0
lhand -4.09804 -20.9688 0.174738
lfingers 7.12502 -0 0
lthumb 21.6417 7.64118 0.101151
rclavicle -2.00524e-14 3.18055e-15 0
rhumerus -44.4523 16.2385 -91.2659
rradius 45.4056 -0 0
rwrist -23.4769 0 0
rhand -30.7197 -27.0029 0.00231904
rfingers 7.12502 -0 0
rthumb -4.01244 -56.9455 0.00229684
